<svg id="Layer_1" data-name="Layer 1" xmlns="http://www.w3.org/2000/svg" viewBox="0 0 1280 1024"><defs><style>.cls-1{fill:#00af4c;}.cls-2{fill:#e6efc2;}.cls-3{fill:#44b649;}.cls-4{fill:#98cd75;}.cls-5{fill:#008342;}</style></defs><path class="cls-1" d="M363.9,354.2c-.06.27-.09.43-.09.43V742.34c0,25.87,20.78,46.85,46.4,46.85h227V548.42Z"/><path class="cls-2" d="M637.2,184.82C401.79,187.05,365.8,345,363.9,354.2L637.2,548.42Z"/><path class="cls-3" d="M363.9,354.2c-.06.27-.09.43-.09.43V742.34c0,25.87,20.78,46.85,46.4,46.85h227V548.42Z"/><path class="cls-4" d="M637.2,184.82C872.61,187.05,908.6,345,910.5,354.2L637.2,548.42Z"/><path class="cls-5" d="M910.5,354.2c.06.27.09.43.09.43V742.34c0,25.87-20.78,46.85-46.4,46.85h-227V548.42Z"/></svg>