<svg id="Layer_1" data-name="Layer 1" xmlns="http://www.w3.org/2000/svg" viewBox="0 0 1280 1024"><defs><style>.cls-1{fill:#00af4c;}.cls-2{fill:#008342;}.cls-3{fill:#73bf44;}.cls-4{fill:#e7f1cf;}</style></defs><path class="cls-1" d="M302.84,625.12l-58.29,248c-6.15,11.9-24.68,7.67-24.68-5.65V625.12Z"/><path class="cls-2" d="M426.65,395.12l-206.78,230V214.44c0-19.92,6.24-38,16.32-51.1Z"/><path class="cls-3" d="M613.91,526.22c-3.45,6.94-210.33,94.83-210.33,94.83a69.33,69.33,0,0,1-23.4,4.07H219.87L426.46,394.86Z"/><path class="cls-1" d="M606.28,162.89,526.76,265.48,426.65,395.12,236.19,163.34c8.9-11.57,20.78-19.28,34.05-21.05H572.58C585.67,144,597.44,151.57,606.28,162.89Z"/><path class="cls-4" d="M622.25,203V497.72a87.86,87.86,0,0,1-8.34,28.5L426.46,394.86l100.3-129.38,79.52-102.59C614.58,173.49,620.34,187.4,622.25,203Z"/><path class="cls-3" d="M874.53,323.13l128.73,187.79c7-1.52,112.33-27.07,112.33-184.47,0-1.12,0-2.21,0-3.32Z"/><path class="cls-4" d="M1115.55,323.13c-1.47-156-106.16-179.9-112.28-181.16L874.53,323.13Z"/><path class="cls-1" d="M1003.27,142l-.28-.06H746a30.91,30.91,0,0,0-31.06,30.76V323.13h159.6Z"/><path class="cls-2" d="M714.93,323.13V511h288l.37-.08L874.53,323.13Z"/><path class="cls-3" d="M874.53,692.22,1003.26,880c7-1.52,112.33-27.07,112.33-184.46,0-1.12,0-2.21,0-3.32Z"/><path class="cls-4" d="M1115.55,692.22c-1.47-156.05-106.16-179.91-112.28-181.17L874.53,692.22Z"/><path class="cls-1" d="M1003.27,511.05,1003,511H714.93V692.22h159.6Z"/><path class="cls-2" d="M714.93,692.22v157.1A30.91,30.91,0,0,0,746,880.08h256.9l.37-.08L874.53,692.22Z"/></svg>