<svg width="256" height="41" viewBox="0 0 256 41" fill="none" xmlns="http://www.w3.org/2000/svg">
<path d="M0.00101545 10.5244V10.5501V34.6315C-0.000957007 35.012 0.0721315 35.3891 0.216104 35.7413C0.360077 36.0935 0.572111 36.414 0.840089 36.6843C1.10807 36.9546 1.42674 37.1695 1.77788 37.3167C2.12903 37.4639 2.50577 37.5406 2.88658 37.5423H16.9976V22.5844L0.00101545 10.5244Z" fill="#00AF4C"/>
<path d="M16.9901 0C2.35469 0.139014 0.117734 9.94911 0 10.5223L16.9901 22.5844V0Z" fill="#E6EFC2"/>
<path d="M0.00101545 10.5244V10.5501V34.6315C-0.000957007 35.012 0.0721315 35.3891 0.216104 35.7413C0.360077 36.0935 0.572111 36.414 0.840089 36.6843C1.10807 36.9546 1.42674 37.1695 1.77788 37.3167C2.12903 37.4639 2.50577 37.5406 2.88658 37.5423H16.9976V22.5844L0.00101545 10.5244Z" fill="#44B649"/>
<path d="M16.9902 0C31.6257 0.139014 33.8626 9.94911 33.9804 10.5223L16.9902 22.5844V0Z" fill="#98CD75"/>
<path d="M33.9804 10.5244V10.5501V34.6315C33.9838 35.3997 33.6818 36.1379 33.1407 36.6837C32.5996 37.2295 31.8637 37.5383 31.0948 37.5423H16.9902V22.5844L33.9804 10.5244Z" fill="#008342"/>
<path d="M64.6839 19.2581C65.78 19.9917 66.646 21.0201 67.182 22.2245C67.7977 23.5998 68.1025 25.0938 68.0746 26.6002C68.1065 28.0918 67.8014 29.5714 67.182 30.9289C66.6568 32.1105 65.792 33.1096 64.6974 33.7992C63.6027 34.4888 62.3277 34.8378 61.0341 34.802C60.064 34.8123 59.1042 34.6017 58.2277 34.1861C57.4277 33.8216 56.7391 33.251 56.2327 32.5329V38.0443C56.2466 38.3855 56.1839 38.7255 56.049 39.0394C55.9142 39.3532 55.7107 39.6329 55.4535 39.8578C54.8809 40.3318 54.1519 40.5751 53.4092 40.5401C52.523 40.5401 51.8094 40.297 51.2686 39.8108C51.0047 39.5784 50.7952 39.2909 50.655 38.9686C50.5148 38.6463 50.4473 38.2971 50.4573 37.9459V20.9284C50.4425 20.5722 50.5027 20.2168 50.634 19.8853C50.7652 19.5537 50.9646 19.2534 51.2193 19.0036C51.7259 18.5174 52.4131 18.2744 53.2807 18.2744C54.0016 18.2396 54.7106 18.4676 55.2758 18.916C55.526 19.1293 55.7307 19.3907 55.8777 19.6846C56.0248 19.9785 56.1113 20.2989 56.1321 20.6269C56.6088 19.8499 57.3032 19.2298 58.1293 18.8432C59.1689 18.3572 60.3142 18.1404 61.4597 18.2129C62.6052 18.2854 63.714 18.6449 64.6839 19.2581ZM61.5586 29.4853C62.0894 28.8152 62.3549 27.8535 62.3549 26.6002C62.3549 25.2828 62.0844 24.2726 61.5436 23.5697C61.0027 22.8668 60.2342 22.5161 59.2381 22.5175C58.2392 22.5175 57.4714 22.8632 56.9348 23.5547C56.3982 24.2462 56.1271 25.24 56.1214 26.5361C56.1214 27.8107 56.3918 28.7888 56.9327 29.4703C57.4735 30.1518 58.2527 30.4919 59.2702 30.4905C60.2649 30.4905 61.0277 30.1554 61.5586 29.4853Z" fill="#44B649"/>
<path d="M82.5985 18.7727C83.0266 19.1733 83.2406 19.7622 83.2406 20.5392C83.2406 21.4032 83.0409 22.0299 82.6413 22.4191C82.2417 22.8084 81.5224 23.0571 80.4835 23.1655L79.5095 23.2617C78.4292 23.3915 77.6565 23.7323 77.1912 24.284C76.7246 24.8337 76.4934 25.5865 76.4934 26.5361V32.0795C76.4934 32.9649 76.2173 33.6293 75.665 34.0727C75.0652 34.5051 74.3443 34.7378 73.6046 34.7378C72.865 34.7378 72.1441 34.5051 71.5443 34.0727C70.9949 33.6293 70.7194 32.9649 70.718 32.0795V20.8643C70.6993 20.5033 70.7641 20.1428 70.9074 19.8108C71.0507 19.4789 71.2686 19.1844 71.5443 18.9502C72.1076 18.4928 72.8159 18.2516 73.5415 18.2701C74.2415 18.2351 74.9291 18.4641 75.468 18.9117C75.9561 19.3394 76.198 19.9489 76.198 20.7274V21.3434C76.5092 20.4395 77.1114 19.6641 77.9105 19.1384C78.647 18.639 79.505 18.3478 80.3936 18.2957L80.8474 18.2637C81.5824 18.2038 82.1661 18.3735 82.5985 18.7727Z" fill="#44B649"/>
<path d="M87.417 33.7819C86.1271 33.1372 85.0552 32.128 84.3345 30.8797C83.6095 29.6264 83.2471 28.1572 83.2471 26.4719C83.2471 24.7866 83.6095 23.3223 84.3345 22.0791C85.052 20.8429 86.1182 19.8454 87.3999 19.2111C88.7199 18.5424 90.2669 18.2074 92.0408 18.2059C93.8146 18.2045 95.3609 18.5396 96.6795 19.2111C97.9619 19.8451 99.0289 20.8426 99.747 22.0791C100.471 23.3209 100.832 24.7852 100.832 26.4719C100.869 28.0114 100.494 29.5328 99.747 30.8797C99.0298 32.1253 97.9635 33.1341 96.6795 33.7819C95.3609 34.462 93.8146 34.802 92.0408 34.802C90.44 34.8363 88.8544 34.4865 87.417 33.7819ZM95.1233 26.4719C95.1233 23.7928 94.0958 22.4526 92.0408 22.4512C89.9858 22.4498 88.9583 23.79 88.9583 26.4719C88.9583 29.1524 89.9858 30.4919 92.0408 30.4905C94.0958 30.489 95.1233 29.1495 95.1233 26.4719Z" fill="#44B649"/>
<path d="M119.537 12.2584C119.805 12.4877 120.019 12.774 120.162 13.0962C120.305 13.4185 120.375 13.7686 120.366 14.1212V32.086C120.383 32.447 120.323 32.8076 120.189 33.1431C120.054 33.4787 119.849 33.7812 119.586 34.0301C119.065 34.5077 118.373 34.7458 117.51 34.7444C116.8 34.7719 116.103 34.5443 115.547 34.1028C115.292 33.8881 115.085 33.6232 114.938 33.3248C114.79 33.0263 114.706 32.7007 114.691 32.3683C114.215 33.1451 113.521 33.7653 112.696 34.152C111.657 34.6395 110.512 34.8578 109.366 34.7868C108.221 34.7158 107.112 34.3577 106.141 33.7456C105.042 33.0119 104.172 31.9849 103.628 30.7814C103.001 29.4084 102.69 27.9124 102.718 26.4035C102.686 24.9137 102.989 23.4357 103.607 22.0792C104.144 20.902 105.012 19.9059 106.105 19.2112C107.211 18.5316 108.488 18.1828 109.787 18.206C110.757 18.1959 111.718 18.4066 112.595 18.822C113.395 19.187 114.083 19.7575 114.59 20.4752V14.0249C114.575 13.6849 114.636 13.3458 114.768 13.0319C114.9 12.718 115.099 12.437 115.352 12.2092C115.86 11.7558 116.547 11.5284 117.411 11.5269C118.187 11.4956 118.946 11.7566 119.537 12.2584ZM113.875 29.4533C114.417 28.7618 114.688 27.768 114.686 26.472C114.686 25.1973 114.416 24.2193 113.875 23.5377C113.334 22.8562 112.556 22.5162 111.54 22.5176C110.541 22.5176 109.773 22.8519 109.236 23.5206C108.7 24.1893 108.429 25.151 108.425 26.4057C108.425 27.7032 108.701 28.7083 109.251 29.4212C109.519 29.7702 109.866 30.0497 110.264 30.2358C110.663 30.422 111.1 30.5094 111.54 30.4906C112.554 30.4906 113.333 30.1448 113.875 29.4533Z" fill="#44B649"/>
<path d="M139.053 18.9845C139.315 19.2333 139.521 19.5358 139.655 19.8714C139.79 20.2069 139.85 20.5675 139.832 20.9285V32.1437C139.841 32.4949 139.774 32.8439 139.633 33.1661C139.493 33.4883 139.284 33.7759 139.021 34.0086C138.436 34.5102 137.682 34.7709 136.912 34.7379C136.217 34.7637 135.536 34.5356 134.996 34.0963C134.749 33.8858 134.55 33.6234 134.416 33.3277C134.281 33.032 134.213 32.7102 134.217 32.3854C133.751 33.1346 133.097 33.7494 132.32 34.169C131.504 34.591 130.596 34.8027 129.677 34.785C127.619 34.785 126.093 34.2146 125.1 33.074C124.107 31.9334 123.607 30.2103 123.602 27.9049V20.9285C123.584 20.5675 123.644 20.2069 123.779 19.8714C123.913 19.5358 124.119 19.2333 124.381 18.9845C124.902 18.5082 125.605 18.2701 126.489 18.2701C127.374 18.2701 128.077 18.5082 128.598 18.9845C128.861 19.233 129.066 19.5355 129.201 19.8711C129.335 20.2067 129.396 20.5675 129.377 20.9285V28.0674C129.377 29.6243 130.048 30.4028 131.389 30.4028C131.751 30.4131 132.11 30.3429 132.441 30.1971C132.772 30.0514 133.067 29.8338 133.303 29.5602C133.82 28.9446 134.086 28.1577 134.05 27.3552V20.9392C134.032 20.5784 134.092 20.2178 134.226 19.8823C134.36 19.5467 134.565 19.2441 134.827 18.9951C135.347 18.5189 136.05 18.2808 136.938 18.2808C137.825 18.2808 138.53 18.5154 139.053 18.9845Z" fill="#44B649"/>
<path d="M144.73 32.5972C143.216 31.1286 142.459 29.1325 142.459 26.6089C142.428 25.0676 142.809 23.5459 143.563 22.2011C144.287 20.9331 145.367 19.9049 146.669 19.2433C148.082 18.5327 149.647 18.1766 151.229 18.206C152.147 18.2078 153.06 18.3271 153.948 18.561C154.793 18.7737 155.602 19.1125 156.347 19.5662C156.671 19.7577 156.936 20.0342 157.113 20.3657C157.291 20.6971 157.374 21.0708 157.353 21.4461C157.38 22.029 157.214 22.6044 156.882 23.0843C156.747 23.2815 156.566 23.4423 156.354 23.5524C156.142 23.6625 155.905 23.7184 155.666 23.7153C155.347 23.7167 155.029 23.6676 154.725 23.5698C154.378 23.4572 154.042 23.314 153.721 23.1421C153.361 22.9794 152.992 22.8366 152.616 22.7143C152.29 22.6143 151.951 22.5652 151.61 22.5689C149.469 22.5689 148.399 23.8764 148.399 26.4912C148.399 27.7873 148.674 28.7761 149.225 29.4576C149.776 30.1391 150.571 30.4792 151.61 30.4777C151.956 30.4805 152.301 30.4315 152.633 30.3323C152.995 30.2177 153.347 30.0747 153.686 29.9046C154.114 29.71 154.472 29.5645 154.742 29.4768C155.028 29.3756 155.33 29.3257 155.634 29.3293C155.874 29.3275 156.111 29.3851 156.323 29.4971C156.535 29.609 156.716 29.7718 156.85 29.9709C157.182 30.4501 157.347 31.0248 157.321 31.607C157.326 31.9951 157.237 32.3788 157.062 32.7255C156.905 33.0448 156.656 33.3099 156.347 33.4869C154.854 34.3965 153.038 34.8506 150.897 34.8492C148.3 34.8178 146.244 34.0671 144.73 32.5972Z" fill="#44B649"/>
<path d="M171.237 32.5585C171.257 32.8922 171.186 33.2252 171.032 33.5219C170.878 33.8186 170.646 34.0681 170.361 34.2438C169.777 34.6159 168.944 34.767 167.861 34.6972L166.951 34.6309C165.006 34.4811 163.53 33.8923 162.524 32.8643C161.518 31.8363 161.014 30.4077 161.011 28.5784V22.8404H160.069C158.339 22.8404 157.475 22.1275 157.475 20.7017C157.475 19.2759 158.339 18.5737 160.069 18.5951H161.011V16.4864C160.994 16.123 161.055 15.7602 161.189 15.4221C161.324 15.084 161.529 14.7782 161.79 14.5252C162.308 14.0404 163.011 13.7973 163.899 13.7959C164.786 13.7945 165.489 14.0376 166.007 14.5252C166.269 14.7782 166.473 15.084 166.608 15.4221C166.742 15.7602 166.803 16.123 166.786 16.4864V18.5951H168.569C170.3 18.5951 171.166 19.2973 171.166 20.7017C171.166 22.1275 170.3 22.8404 168.569 22.8404H166.791V29.0639C166.78 29.4442 166.913 29.8146 167.163 30.1011C167.282 30.2391 167.429 30.3508 167.594 30.4292C167.758 30.5076 167.938 30.551 168.12 30.5567L169.062 30.6208C170.513 30.7064 171.238 31.3523 171.237 32.5585Z" fill="#44B649"/>
<path d="M195.876 19.2112C196.961 19.91 197.822 20.9054 198.357 22.0792C198.977 23.436 199.282 24.9148 199.25 26.4057C199.278 27.9128 198.973 29.4076 198.357 30.7836C197.823 31.9882 196.956 33.0162 195.859 33.7478C194.889 34.3599 193.78 34.718 192.635 34.789C191.49 34.86 190.345 34.6417 189.307 34.1541C188.481 33.7681 187.787 33.1478 187.312 32.3705C187.295 32.7027 187.21 33.0279 187.063 33.3262C186.916 33.6245 186.709 33.8895 186.455 34.1049C185.888 34.5495 185.181 34.777 184.46 34.7465C183.596 34.7465 182.908 34.5034 182.399 34.0173C182.144 33.7673 181.945 33.467 181.814 33.1355C181.683 32.8039 181.622 32.4486 181.637 32.0924V14.1276C181.627 13.7766 181.694 13.4277 181.834 13.1057C181.975 12.7838 182.184 12.4966 182.448 12.2648C182.989 11.7772 183.703 11.5334 184.589 11.5334C185.331 11.4996 186.06 11.7428 186.633 12.2156C186.89 12.4409 187.094 12.7209 187.229 13.0351C187.364 13.3494 187.426 13.6898 187.412 14.0313V20.4752C187.919 19.757 188.607 19.1864 189.407 18.822C190.284 18.4064 191.244 18.1958 192.214 18.206C193.506 18.182 194.778 18.531 195.876 19.2112ZM192.73 29.4383C193.269 28.7354 193.539 27.7246 193.541 26.4057C193.541 25.1539 193.275 24.1922 192.745 23.5206C192.216 22.8512 191.46 22.5176 190.458 22.5176C189.457 22.5176 188.662 22.8576 188.123 23.5377C187.584 24.2178 187.312 25.1974 187.312 26.472C187.312 27.7467 187.581 28.7625 188.123 29.4533C188.665 30.1441 189.431 30.4906 190.426 30.4906C191.422 30.4906 192.188 30.1398 192.73 29.4383Z" fill="#008342"/>
<path d="M217.224 18.9845C217.487 19.233 217.693 19.5355 217.827 19.8711C217.962 20.2067 218.022 20.5675 218.004 20.9285V32.1437C218.013 32.4949 217.945 32.8439 217.805 33.1661C217.665 33.4883 217.456 33.7759 217.192 34.0086C216.608 34.5102 215.854 34.7709 215.084 34.7379C214.389 34.7641 213.708 34.536 213.17 34.0963C212.922 33.8861 212.724 33.6237 212.589 33.3279C212.454 33.0322 212.387 32.7103 212.391 32.3854C211.924 33.1347 211.27 33.7495 210.492 34.169C209.676 34.591 208.767 34.8027 207.849 34.785C205.794 34.785 204.269 34.2146 203.274 33.074C202.279 31.9334 201.78 30.2103 201.776 27.9049V20.9285C201.758 20.5675 201.818 20.2069 201.952 19.8714C202.087 19.5358 202.292 19.2333 202.555 18.9845C203.074 18.5082 203.777 18.2701 204.663 18.2701C205.549 18.2701 206.253 18.5082 206.774 18.9845C207.036 19.2334 207.241 19.536 207.375 19.8716C207.509 20.2071 207.569 20.5677 207.551 20.9285V28.0674C207.551 29.6243 208.222 30.4028 209.563 30.4028C209.925 30.4131 210.284 30.3429 210.615 30.1971C210.946 30.0514 211.241 29.8338 211.477 29.5602C211.976 28.997 212.225 28.262 212.224 27.3552V20.9392C212.206 20.5782 212.266 20.2174 212.4 19.8818C212.535 19.5462 212.74 19.2437 213.003 18.9951C213.521 18.5189 214.224 18.2808 215.112 18.2808C215.999 18.2808 216.704 18.5154 217.224 18.9845Z" fill="#008342"/>
<path d="M237.454 12.2583C237.722 12.4876 237.936 12.7739 238.079 13.0961C238.222 13.4184 238.292 13.7685 238.282 14.1211V32.0859C238.3 32.4469 238.24 32.8075 238.106 33.1431C237.971 33.4786 237.766 33.7811 237.503 34.03C236.984 34.5076 236.292 34.7457 235.427 34.7443C234.717 34.7718 234.02 34.5442 233.464 34.1027C233.21 33.8876 233.003 33.6227 232.855 33.3243C232.708 33.026 232.624 32.7005 232.608 32.3682C232.132 33.145 231.438 33.7652 230.613 34.1519C229.574 34.6394 228.429 34.8577 227.283 34.7867C226.138 34.7157 225.028 34.3576 224.058 33.7455C222.96 33.0112 222.089 31.9844 221.545 30.7813C220.918 29.4083 220.607 27.9123 220.635 26.4035C220.603 24.9126 220.908 23.4338 221.528 22.0769C222.065 20.8998 222.933 19.9036 224.026 19.209C225.132 18.5291 226.411 18.1803 227.71 18.2038C228.68 18.194 229.64 18.4046 230.516 18.8197C231.316 19.1848 232.004 19.7553 232.511 20.4729V14.0248C232.497 13.6848 232.557 13.3457 232.689 13.0318C232.821 12.7179 233.02 12.4369 233.273 12.2091C233.781 11.7557 234.468 11.5283 235.333 11.5268C236.107 11.4961 236.864 11.7572 237.454 12.2583ZM231.792 29.4532C232.334 28.7617 232.605 27.7679 232.603 26.4719C232.603 25.1972 232.333 24.2192 231.792 23.5376C231.251 22.8561 230.473 22.5161 229.457 22.5175C228.458 22.5175 227.69 22.8518 227.153 23.5205C226.617 24.1892 226.346 25.1509 226.342 26.4056C226.342 27.7031 226.618 28.7082 227.17 29.4211C227.437 29.7702 227.784 30.0498 228.182 30.236C228.58 30.4222 229.017 30.5095 229.457 30.4905C230.474 30.4905 231.253 30.1447 231.792 29.4532Z" fill="#008342"/>
<path d="M244.282 34.4834C243.352 34.2948 242.462 33.9437 241.653 33.4461C241.332 33.2784 241.08 33.0038 240.941 32.6698C240.763 32.2837 240.674 31.8629 240.679 31.4379C240.659 30.9159 240.826 30.4038 241.15 29.9943C241.291 29.8151 241.47 29.6707 241.676 29.5724C241.881 29.474 242.106 29.4245 242.334 29.4276C242.641 29.4257 242.947 29.4638 243.244 29.5409C243.597 29.6437 243.944 29.7679 244.282 29.9131C244.974 30.1526 245.584 30.3408 246.115 30.4648C246.78 30.6088 247.461 30.6741 248.142 30.6595C248.614 30.6808 249.086 30.5975 249.522 30.4156C249.667 30.3637 249.792 30.2693 249.881 30.1448C249.971 30.0203 250.02 29.8716 250.023 29.7184C250.029 29.6142 250.011 29.51 249.969 29.4145C249.927 29.3189 249.862 29.2347 249.781 29.1688C249.499 28.9877 249.186 28.8608 248.857 28.7945C248.403 28.6776 247.635 28.5108 246.553 28.2941C244.627 27.9262 243.237 27.3695 242.383 26.6238C241.53 25.8781 241.102 24.8244 241.099 23.4628C241.093 22.4872 241.419 21.5385 242.024 20.7724C242.693 19.9333 243.572 19.285 244.571 18.8925C245.726 18.4246 246.964 18.1933 248.21 18.2124C249.168 18.2102 250.121 18.3295 251.049 18.5674C251.909 18.7821 252.734 19.1207 253.498 19.5726C254.168 19.9618 254.504 20.5885 254.504 21.4525C254.522 22.0014 254.35 22.5398 254.018 22.9774C253.881 23.1678 253.7 23.3231 253.492 23.4302C253.283 23.5373 253.052 23.5932 252.817 23.5933C252.114 23.5567 251.428 23.3685 250.805 23.0415C250.356 22.8318 249.893 22.6531 249.42 22.5068C248.96 22.3812 248.485 22.3214 248.009 22.3293C247.574 22.3078 247.14 22.3907 246.744 22.571C246.608 22.6304 246.493 22.728 246.412 22.8518C246.331 22.9756 246.288 23.1203 246.288 23.2682C246.288 23.6147 246.502 23.8849 246.93 24.0788C247.358 24.2727 248.197 24.4865 249.445 24.7204C251.543 25.0882 253.024 25.645 253.889 26.3907C254.754 27.1363 255.186 28.2114 255.186 29.6158C255.204 30.3595 255.033 31.0955 254.69 31.7558C254.347 32.416 253.842 32.979 253.224 33.3927C251.916 34.3308 250.159 34.8006 247.951 34.8021C246.72 34.8247 245.491 34.7179 244.282 34.4834Z" fill="#008342"/>
</svg>
