<svg width="1440" height="470" viewBox="0 0 1440 470" fill="none" xmlns="http://www.w3.org/2000/svg">
<g filter="url(#filter0_d)">
<path d="M562.12 411.39L352.21 267.49C353.91 259.71 382.47 141.93 558.41 141.93C559.66 141.93 560.88 141.93 562.12 141.93V411.39Z" fill="#73BF44"/>
<path d="M562.12 141.97C736.55 143.62 763.22 260.64 764.62 267.48L562.12 411.39V141.97Z" fill="#E7F1CF"/>
<path d="M764.62 267.48C764.62 267.68 764.69 267.8 764.69 267.8V530.3C764.69 546.078 758.422 561.209 747.266 572.366C736.109 583.522 720.978 589.79 705.2 589.79H562.12V411.39L764.62 267.48Z" fill="#73BF44"/>
<path d="M562.12 589.79H411.62C403.807 589.792 396.071 588.254 388.852 585.265C381.634 582.275 375.076 577.893 369.551 572.369C364.027 566.845 359.645 560.286 356.656 553.068C353.666 545.849 352.129 538.113 352.13 530.3V267.9C352.13 267.9 352.13 267.76 352.21 267.49L562.12 411.39V589.79Z" fill="#008342"/>
<path d="M320.7 269.46L530.6 125.55C528.91 117.77 500.34 0 324.41 0C323.15 0 321.94 0 320.7 0V269.46Z" fill="#73BF44"/>
<path d="M320.7 0.0498047C146.26 1.6998 119.6 118.72 118.19 125.55L320.7 269.46V0.0498047Z" fill="#E7F1CF"/>
<path d="M118.19 125.55L118.13 125.87V388.37C118.129 396.183 119.666 403.919 122.656 411.137C125.645 418.355 130.027 424.914 135.551 430.439C141.076 435.963 147.634 440.345 154.852 443.334C162.071 446.323 169.807 447.861 177.62 447.86H320.7V269.46L118.19 125.55Z" fill="#73BF44"/>
<path d="M320.7 447.86H471.2C479.013 447.861 486.749 446.323 493.968 443.334C501.186 440.345 507.745 435.963 513.269 430.439C518.793 424.914 523.175 418.356 526.164 411.137C529.154 403.919 530.691 396.183 530.69 388.37V125.98C530.69 125.98 530.69 125.83 530.6 125.56L320.7 269.46V447.86Z" fill="#008342"/>
<path d="M57.5698 372.77L267.48 228.88C265.78 221.1 237.22 103.32 61.2798 103.32C60.0298 103.32 58.8098 103.32 57.5698 103.32V372.77Z" fill="#73BF44"/>
<path d="M57.5698 103.36C-116.86 105.01 -143.52 222.03 -144.93 228.86L57.5698 372.77V103.36Z" fill="#E7F1CF"/>
<path d="M-144.93 228.86C-144.93 229.07 -145 229.19 -145 229.19V491.69C-144.997 507.467 -138.729 522.597 -127.573 533.753C-116.417 544.909 -101.287 551.178 -85.51 551.18H57.57V372.77L-144.93 228.86Z" fill="#73BF44"/>
<path d="M57.5698 551.18H208.08C223.857 551.177 238.987 544.909 250.143 533.753C261.299 522.597 267.567 507.467 267.57 491.69V229.29C267.57 229.29 267.57 229.14 267.48 228.88L57.5698 372.77V551.18Z" fill="#008342"/>
</g>
<g filter="url(#filter1_d)">
<path d="M878.57 411.39L1088.48 267.49C1086.78 259.71 1058.22 141.93 882.28 141.93C881.03 141.93 879.811 141.93 878.57 141.93V411.39Z" fill="#73BF44"/>
<path d="M878.57 141.97C704.14 143.62 677.47 260.64 676.07 267.48L878.57 411.39V141.97Z" fill="#E7F1CF"/>
<path d="M676.07 267.48C676.07 267.68 676 267.8 676 267.8V530.3C676 546.078 682.268 561.209 693.424 572.366C704.581 583.522 719.713 589.79 735.49 589.79H878.57V411.39L676.07 267.48Z" fill="#73BF44"/>
<path d="M878.571 589.79H1029.07C1036.88 589.791 1044.62 588.253 1051.84 585.264C1059.06 582.275 1065.61 577.893 1071.14 572.369C1076.66 566.844 1081.05 560.286 1084.03 553.067C1087.02 545.849 1088.56 538.113 1088.56 530.3V267.9C1088.56 267.9 1088.56 267.76 1088.48 267.49L878.571 411.39V589.79Z" fill="#008342"/>
<path d="M1119.99 269.46L910.09 125.55C911.78 117.77 940.35 0 1116.28 0C1117.54 0 1118.75 0 1119.99 0V269.46Z" fill="#73BF44"/>
<path d="M1119.99 0.0500488C1294.43 1.70005 1321.09 118.72 1322.5 125.55L1119.99 269.46V0.0500488Z" fill="#E7F1CF"/>
<path d="M1322.5 125.55L1322.56 125.87V388.37C1322.56 396.183 1321.02 403.919 1318.03 411.137C1315.05 418.356 1310.66 424.914 1305.14 430.439C1299.61 435.963 1293.06 440.345 1285.84 443.334C1278.62 446.323 1270.88 447.861 1263.07 447.86H1119.99V269.46L1322.5 125.55Z" fill="#73BF44"/>
<path d="M1119.99 447.86H969.49C961.678 447.861 953.941 446.323 946.723 443.334C939.505 440.345 932.946 435.963 927.422 430.439C921.897 424.914 917.515 418.356 914.526 411.137C911.537 403.919 909.999 396.183 910 388.37V125.98C910 125.98 910 125.83 910.09 125.56L1119.99 269.46V447.86Z" fill="#008342"/>
<path d="M1383.12 372.77L1173.21 228.88C1174.91 221.1 1203.47 103.32 1379.41 103.32C1380.66 103.32 1381.88 103.32 1383.12 103.32V372.77Z" fill="#73BF44"/>
<path d="M1383.12 103.36C1557.55 105.01 1584.21 222.03 1585.62 228.86L1383.12 372.77V103.36Z" fill="#E7F1CF"/>
<path d="M1585.62 228.86C1585.62 229.07 1585.69 229.19 1585.69 229.19V491.69C1585.69 507.467 1579.42 522.597 1568.26 533.753C1557.11 544.909 1541.98 551.177 1526.2 551.18H1383.12V372.77L1585.62 228.86Z" fill="#73BF44"/>
<path d="M1383.12 551.18H1232.61C1216.83 551.177 1201.7 544.909 1190.55 533.753C1179.39 522.597 1173.12 507.467 1173.12 491.69V229.29C1173.12 229.29 1173.12 229.14 1173.21 228.88L1383.12 372.77V551.18Z" fill="#008342"/>
</g>
<defs>
<filter id="filter0_d" x="-149" y="0" width="917.69" height="597.79" filterUnits="userSpaceOnUse" color-interpolation-filters="sRGB">
<feFlood flood-opacity="0" result="BackgroundImageFix"/>
<feColorMatrix in="SourceAlpha" type="matrix" values="0 0 0 0 0 0 0 0 0 0 0 0 0 0 0 0 0 0 127 0"/>
<feOffset dy="4"/>
<feGaussianBlur stdDeviation="2"/>
<feColorMatrix type="matrix" values="0 0 0 0 0.188235 0 0 0 0 0.498039 0 0 0 0 0.101961 0 0 0 1 0"/>
<feBlend mode="normal" in2="BackgroundImageFix" result="effect1_dropShadow"/>
<feBlend mode="normal" in="SourceGraphic" in2="effect1_dropShadow" result="shape"/>
</filter>
<filter id="filter1_d" x="672" y="0" width="917.69" height="597.79" filterUnits="userSpaceOnUse" color-interpolation-filters="sRGB">
<feFlood flood-opacity="0" result="BackgroundImageFix"/>
<feColorMatrix in="SourceAlpha" type="matrix" values="0 0 0 0 0 0 0 0 0 0 0 0 0 0 0 0 0 0 127 0"/>
<feOffset dy="4"/>
<feGaussianBlur stdDeviation="2"/>
<feColorMatrix type="matrix" values="0 0 0 0 0.188235 0 0 0 0 0.498039 0 0 0 0 0.101961 0 0 0 1 0"/>
<feBlend mode="normal" in2="BackgroundImageFix" result="effect1_dropShadow"/>
<feBlend mode="normal" in="SourceGraphic" in2="effect1_dropShadow" result="shape"/>
</filter>
</defs>
</svg>
