<svg id="Layer_1" data-name="Layer 1" xmlns="http://www.w3.org/2000/svg" viewBox="0 0 1164.1 175.52"><defs><style>.cls-1{fill:#00af4c;}.cls-2{fill:#e6efc2;}.cls-3{fill:#44b649;}.cls-4{fill:#98cd75;}.cls-5{fill:#008342;}.cls-6{fill:#73bf44;}.cls-7{fill:#1e4e26;}</style></defs><path class="cls-1" d="M0,49.19l0,.13v112.6a13.54,13.54,0,0,0,13.48,13.6H79.4V105.6Z"/><path class="cls-2" d="M79.4,0C11,.65.58,46.51,0,49.19L79.4,105.6Z"/><path class="cls-3" d="M0,49.19l0,.13v112.6a13.54,13.54,0,0,0,13.48,13.6H79.4V105.6Z"/><path class="cls-4" d="M79.4,0c68.37.65,78.82,46.51,79.37,49.19L79.4,105.6Z"/><path class="cls-5" d="M158.77,49.19l0,.13v112.6a13.54,13.54,0,0,1-13.48,13.6H79.4V105.6Z"/><path class="cls-6" d="M274.12,76a32.61,32.61,0,0,1,11.67,13.87A47.88,47.88,0,0,1,290,110.35a46.36,46.36,0,0,1-4.17,20.23,30.49,30.49,0,0,1-28.72,18.12A30,30,0,0,1,244,145.82a23.23,23.23,0,0,1-9.32-7.73v25.76a10.73,10.73,0,0,1-3.64,8.49,14,14,0,0,1-9.55,3.18q-6.21,0-10-3.41a11.18,11.18,0,0,1-3.79-8.71V83.83a11.88,11.88,0,0,1,3.56-9q3.56-3.42,9.62-3.41a13.92,13.92,0,0,1,9.33,3,11.47,11.47,0,0,1,4,8,21.8,21.8,0,0,1,9.32-8.33A31.89,31.89,0,0,1,274.12,76Zm-14.55,47.82q3.71-4.7,3.71-13.49,0-9.24-3.79-14.17t-10.76-4.93q-7,0-10.76,4.85c-2.53,3.24-3.79,7.88-3.79,14s1.26,10.53,3.79,13.71,6.16,4.78,10.91,4.78S257.09,127,259.57,123.84Z"/><path class="cls-6" d="M357.86,73.75q3,2.81,3,8.26,0,6.06-2.8,8.79T348,94.28l-4.55.46c-5,.6-8.66,2.2-10.83,4.77s-3.26,6.09-3.26,10.54V136q0,6.22-3.87,9.33a16.49,16.49,0,0,1-19.25,0q-3.86-3.1-3.86-9.33V83.52a11,11,0,0,1,3.86-8.94,14.21,14.21,0,0,1,9.32-3.18,13.07,13.07,0,0,1,9,3c2.28,2,3.41,4.85,3.41,8.49V85.8a20.18,20.18,0,0,1,8-10.31,22.86,22.86,0,0,1,11.59-3.94l2.13-.15C353.11,71.09,355.84,71.88,357.86,73.75Z"/><path class="cls-6" d="M380.37,143.92A34.18,34.18,0,0,1,366,130.36q-5.09-8.79-5.08-20.62T366,89.21a34.07,34.07,0,0,1,14.32-13.42q9.25-4.7,21.68-4.7t21.67,4.7A34.07,34.07,0,0,1,438,89.21Q443,97.93,443,109.74T438,130.36a34.33,34.33,0,0,1-14.32,13.56q-9.24,4.79-21.67,4.78A46.64,46.64,0,0,1,380.37,143.92Zm36-34.18Q416.37,91,402,91t-14.4,18.79q0,18.8,14.4,18.8T416.37,109.74Z"/><path class="cls-6" d="M530.42,43.28A11.09,11.09,0,0,1,534.28,52v84a11.73,11.73,0,0,1-3.63,9.1q-3.64,3.33-9.7,3.33a13.87,13.87,0,0,1-9.17-2.95,11.31,11.31,0,0,1-4-8.11,21.82,21.82,0,0,1-9.32,8.34,31.93,31.93,0,0,1-30.62-1.9,33,33,0,0,1-11.74-13.87,47.16,47.16,0,0,1-4.25-20.46A46.36,46.36,0,0,1,456,89.21a31.39,31.39,0,0,1,11.67-13.42,31.75,31.75,0,0,1,17.2-4.7A30,30,0,0,1,498,74a23.33,23.33,0,0,1,9.33,7.73V51.54a10.83,10.83,0,0,1,3.56-8.49q3.55-3.18,9.62-3.18A14.48,14.48,0,0,1,530.42,43.28ZM504,123.69q3.79-4.84,3.79-14,0-8.94-3.79-13.71t-10.91-4.78q-7,0-10.76,4.7t-3.79,13.49q0,9.09,3.86,14.1a12.77,12.77,0,0,0,10.69,5Q500.19,128.54,504,123.69Z"/><path class="cls-6" d="M621.59,74.73a11.76,11.76,0,0,1,3.63,9.1v52.44a11.19,11.19,0,0,1-3.78,8.71,14.17,14.17,0,0,1-9.86,3.41,13.35,13.35,0,0,1-8.94-2.95,10.34,10.34,0,0,1-3.64-8,23.71,23.71,0,0,1-8.86,8.34,25.92,25.92,0,0,1-12.36,2.88q-14.4,0-21.37-8t-7-24.18V83.83a11.73,11.73,0,0,1,3.64-9.1q3.63-3.33,9.85-3.33t9.85,3.33a11.73,11.73,0,0,1,3.64,9.1v33.34q0,10.92,9.4,10.91a11.4,11.4,0,0,0,8.94-3.94,15,15,0,0,0,3.49-10.3v-30a11.76,11.76,0,0,1,3.63-9.1q3.64-3.33,9.86-3.33T621.59,74.73Z"/><path class="cls-6" d="M648.11,138.39q-10.61-10.3-10.61-28a40.58,40.58,0,0,1,5.15-20.61,35,35,0,0,1,14.48-13.8,45.48,45.48,0,0,1,21.29-4.85,50.21,50.21,0,0,1,12.74,1.67,40.23,40.23,0,0,1,11.21,4.7,9.61,9.61,0,0,1,4.7,8.79,12.46,12.46,0,0,1-2.2,7.65,6.75,6.75,0,0,1-5.68,3,14.45,14.45,0,0,1-4.4-.68,30.29,30.29,0,0,1-4.7-2.05,49.92,49.92,0,0,0-5.15-2,15.16,15.16,0,0,0-4.7-.69q-15,0-15,18.34,0,9.11,3.86,13.87t11.14,4.78a15.91,15.91,0,0,0,4.78-.69,32.83,32.83,0,0,0,4.92-2q3-1.36,4.93-2a12.32,12.32,0,0,1,4.17-.68,6.79,6.79,0,0,1,5.68,3,12.52,12.52,0,0,1,2.2,7.65,11.35,11.35,0,0,1-1.21,5.23,8.41,8.41,0,0,1-3.34,3.56q-10.46,6.36-25.46,6.37Q658.71,148.7,648.11,138.39Z"/><path class="cls-6" d="M771.94,138.24a8.66,8.66,0,0,1-4.09,7.88q-4.1,2.58-11.67,2.12l-4.25-.3q-13.63-1.06-20.69-8.26t-7-20.08V92.77h-4.4q-12.12,0-12.12-10,0-9.84,12.12-9.85h4.4V63.06a12,12,0,0,1,3.63-9.17q3.64-3.41,9.86-3.41t9.85,3.41a12,12,0,0,1,3.64,9.17v9.85h8.33q12.12,0,12.13,9.85,0,10-12.13,10h-8.33v29.1a7.06,7.06,0,0,0,1.74,4.85,6.19,6.19,0,0,0,4.47,2.12l4.4.3Q771.93,129.76,771.94,138.24Z"/><path class="cls-7" d="M887,75.79a31.56,31.56,0,0,1,11.59,13.42,46.36,46.36,0,0,1,4.17,20.23,47.88,47.88,0,0,1-4.17,20.46A32.55,32.55,0,0,1,887,143.77a31.91,31.91,0,0,1-30.61,1.9,21.85,21.85,0,0,1-9.33-8.34,11.34,11.34,0,0,1-4,8.11,14.12,14.12,0,0,1-9.32,2.95q-6.08,0-9.63-3.41a11.92,11.92,0,0,1-3.56-9V52a11.19,11.19,0,0,1,3.79-8.72q3.78-3.41,10-3.41a14,14,0,0,1,9.55,3.18,10.73,10.73,0,0,1,3.64,8.49V81.7A23.23,23.23,0,0,1,856.8,74a30,30,0,0,1,13.11-2.88A31.37,31.37,0,0,1,887,75.79Zm-14.7,47.82q3.78-4.92,3.79-14.17,0-8.79-3.72-13.49t-10.68-4.7q-7.12,0-10.92,4.78T847,109.74q0,9.11,3.79,14t10.76,4.85Q868.55,128.54,872.34,123.61Z"/><path class="cls-7" d="M986.77,74.73a11.77,11.77,0,0,1,3.64,9.1v52.44a11.2,11.2,0,0,1-3.79,8.71,14.14,14.14,0,0,1-9.85,3.41,13.37,13.37,0,0,1-8.95-2.95,10.34,10.34,0,0,1-3.63-8,23.81,23.81,0,0,1-8.87,8.34A25.91,25.91,0,0,1,943,148.7q-14.4,0-21.37-8t-7-24.18V83.83a11.77,11.77,0,0,1,3.64-9.1q3.65-3.33,9.85-3.33T938,74.73a11.73,11.73,0,0,1,3.64,9.1v33.34q0,10.92,9.4,10.91a11.38,11.38,0,0,0,8.94-3.94q3.49-3.93,3.49-10.3v-30a11.73,11.73,0,0,1,3.64-9.1q3.63-3.33,9.85-3.33T986.77,74.73Z"/><path class="cls-7" d="M1081.27,43.28a11.1,11.1,0,0,1,3.87,8.72v84a11.74,11.74,0,0,1-3.64,9.1q-3.64,3.33-9.7,3.33a13.87,13.87,0,0,1-9.17-2.95,11.31,11.31,0,0,1-4-8.11,21.82,21.82,0,0,1-9.32,8.34,31.93,31.93,0,0,1-30.62-1.9,33,33,0,0,1-11.74-13.87,47.16,47.16,0,0,1-4.25-20.46,46.36,46.36,0,0,1,4.17-20.23,31.39,31.39,0,0,1,11.67-13.42,31.75,31.75,0,0,1,17.2-4.7A30,30,0,0,1,1048.83,74a23.27,23.27,0,0,1,9.33,7.73V51.54a10.83,10.83,0,0,1,3.56-8.49q3.55-3.18,9.62-3.18A14.48,14.48,0,0,1,1081.27,43.28Zm-26.45,80.41q3.79-4.84,3.79-14,0-8.94-3.79-13.71t-10.91-4.78q-7,0-10.76,4.7t-3.79,13.49q0,9.09,3.86,14.1a12.77,12.77,0,0,0,10.69,5Q1051,128.54,1054.82,123.69Z"/><path class="cls-7" d="M1113.18,147.18a38.06,38.06,0,0,1-12.28-4.85,7.38,7.38,0,0,1-3.34-3.64,13.29,13.29,0,0,1-1.21-5.76,10.2,10.2,0,0,1,2.2-6.74,6.87,6.87,0,0,1,5.53-2.65,16.07,16.07,0,0,1,4.25.53,39.16,39.16,0,0,1,4.85,1.74q4.85,1.66,8.56,2.58a41.13,41.13,0,0,0,9.47.91,15,15,0,0,0,6.44-1.14,3.54,3.54,0,0,0,2.35-3.26,3.14,3.14,0,0,0-1.13-2.58,12.84,12.84,0,0,0-4.32-1.74q-3.19-.83-10.76-2.35-13.5-2.58-19.48-7.8t-6-14.78a20.1,20.1,0,0,1,4.32-12.58,28.59,28.59,0,0,1,11.9-8.79,43.3,43.3,0,0,1,17-3.19,52.84,52.84,0,0,1,13.26,1.67,42.44,42.44,0,0,1,11.44,4.7q4.69,2.73,4.7,8.79a11.14,11.14,0,0,1-2.27,7.12,6.88,6.88,0,0,1-5.61,2.88,22.72,22.72,0,0,1-9.4-2.57,49,49,0,0,0-6.44-2.5,23.09,23.09,0,0,0-6.59-.84,12.68,12.68,0,0,0-5.92,1.14,3.55,3.55,0,0,0-2.12,3.26q0,2.43,3,3.79t11.74,3q14.7,2.58,20.77,7.8t6.06,15.09a20.68,20.68,0,0,1-9.17,17.65q-9.17,6.6-24.63,6.6A82,82,0,0,1,1113.18,147.18Z"/></svg>