<svg id="Layer_1" data-name="Layer 1" xmlns="http://www.w3.org/2000/svg" viewBox="0 0 1280 1024"><defs><style>.cls-1{fill:#73bf44;}.cls-2{fill:#e7f1cf;}.cls-3{fill:#008342;}</style></defs><path class="cls-1" d="M756.83,398.22,719.34,197.29c5.38-3.45,88.49-54.11,188.4,45.8.71.71,1.39,1.42,2.09,2.13Z"/><path class="cls-2" d="M909.83,245.22c98.12,100,46.81,181.59,43.72,186.27L756.83,398.22Z"/><path class="cls-1" d="M953.55,431.49l-.14.22L804.33,580.78a47.77,47.77,0,0,1-67.56,0l-81.26-81.25L756.83,398.22Z"/><path class="cls-3" d="M655.51,499.53,570,414.06a47.8,47.8,0,0,1,0-67.57l149-149,.28-.19,37.49,200.93Z"/><path class="cls-1" d="M563.8,255.9,480.68,69.17c4.43-4.61,73.5-73.18,193.88.79.86.53,1.68,1.06,2.52,1.59Z"/><path class="cls-2" d="M677.08,71.55c118.66,74.48,87.7,165.76,85.79,171L563.8,255.9Z"/><path class="cls-1" d="M762.87,242.58l-.09.25L652.4,422.44a47.77,47.77,0,0,1-65.72,15.69L488.78,378l75-122.07Z"/><path class="cls-3" d="M488.78,378l-103-63.29A47.77,47.77,0,0,1,370.11,249L480.45,69.42l.23-.25L563.8,255.9Z"/><path class="cls-1" d="M878.5,576.44,908,374.19c6.21-1.53,101.24-22.6,163.48,104.24.44.91.85,1.79,1.29,2.69Z"/><path class="cls-2" d="M1072.75,481.12c60.52,126.35-14.42,187-18.85,190.41L878.5,576.44Z"/><path class="cls-1" d="M1053.9,671.53l-.21.16L864.43,764.56a47.77,47.77,0,0,1-63.94-21.84L749.87,639.56,878.5,576.44Z"/><path class="cls-3" d="M749.87,639.56,696.62,531.05a47.78,47.78,0,0,1,21.85-63.94l189.19-92.84.32-.08L878.5,576.44Z"/><path class="cls-1" d="M363.22,433.85,251.17,262.92c3.64-5.27,60.79-84.05,191.49-30.38.94.38,1.83.77,2.75,1.16Z"/><path class="cls-2" d="M445.41,233.7c129.09,54.43,113.2,149.51,112.16,155L363.22,433.85Z"/><path class="cls-1" d="M557.57,388.71c0,.17-.05.26-.05.26L477.44,584a47.77,47.77,0,0,1-62.34,26L308.8,566.4l54.42-132.55Z"/><path class="cls-3" d="M308.8,566.4,197,520.48a47.77,47.77,0,0,1-26.05-62.34L251,263.2l.19-.28L363.22,433.85Z"/><path class="cls-1" d="M712.18,806.37,894,899.76c4.85-4.17,77.17-69.32,10-193.63-.48-.89-1-1.74-1.44-2.61Z"/><path class="cls-2" d="M902.55,703.52c-67.76-122.62-160.63-96.79-166-95.17l-24.38,198Z"/><path class="cls-1" d="M736.56,608.35l-.25.08L550.83,708.64a47.77,47.77,0,0,0-19.33,64.74l54.62,101.1,126.06-68.11Z"/><path class="cls-3" d="M586.12,874.48l57.46,106.34a47.77,47.77,0,0,0,64.74,19.33L893.73,900l.26-.22L712.18,806.37Z"/><path class="cls-1" d="M507,630.58,469.5,429.65c5.38-3.45,88.49-54.11,188.4,45.8.71.71,1.39,1.42,2.08,2.13Z"/><path class="cls-2" d="M660,477.58c98.12,100,46.81,181.59,43.73,186.27L507,630.58Z"/><path class="cls-1" d="M703.71,663.85l-.15.22L554.49,813.14a47.78,47.78,0,0,1-67.57,0l-81.25-81.25L507,630.58Z"/><path class="cls-3" d="M405.67,731.89,320.2,646.42a47.78,47.78,0,0,1,0-67.57l149-149,.29-.19L507,630.58Z"/></svg>