<svg id="Layer_1" data-name="Layer 1" xmlns="http://www.w3.org/2000/svg" viewBox="0 0 546.77 604.37"><defs><style>.cls-1{fill:#00af4c;}.cls-2{fill:#e6efc2;}.cls-3{fill:#44b649;}.cls-4{fill:#98cd75;}.cls-5{fill:#008342;}</style></defs><path class="cls-1" d="M.09,169.38l-.09.43V557.52a46.62,46.62,0,0,0,46.4,46.85h227V363.6Z"/><path class="cls-2" d="M273.39,0C38,2.23,2,160.16.09,169.38L273.39,363.6Z"/><path class="cls-3" d="M.09,169.38l-.09.43V557.52a46.62,46.62,0,0,0,46.4,46.85h227V363.6Z"/><path class="cls-4" d="M273.39,0c235.41,2.23,271.4,160.16,273.3,169.38L273.39,363.6Z"/><path class="cls-5" d="M546.69,169.38c0,.28.08.43.08.43V557.52a46.62,46.62,0,0,1-46.4,46.85h-227V363.6Z"/></svg>