<svg id="Layer_1" data-name="Layer 1" xmlns="http://www.w3.org/2000/svg" viewBox="0 0 1280 1024"><defs><style>.cls-1{fill:#73bf44;}.cls-2{fill:#e7f1cf;}.cls-3{fill:#008342;}</style></defs><path class="cls-1" d="M927.16,588.84,717.25,444.94c1.7-7.78,30.26-125.56,206.2-125.56,1.25,0,2.47,0,3.71,0Z"/><path class="cls-2" d="M927.16,319.42c174.43,1.65,201.1,118.67,202.5,125.51L927.16,588.84Z"/><path class="cls-1" d="M1129.66,444.93c0,.2.07.32.07.32v262.5a59.49,59.49,0,0,1-59.49,59.49H927.16V588.84Z"/><path class="cls-3" d="M927.16,767.24H776.66a59.48,59.48,0,0,1-59.49-59.49V445.35s0-.14.08-.41l209.91,143.9Z"/><path class="cls-1" d="M685.74,446.91,895.64,303c-1.69-7.78-30.26-125.55-206.19-125.55-1.26,0-2.47,0-3.71,0Z"/><path class="cls-2" d="M685.74,177.5C511.3,179.15,484.64,296.17,483.23,303L685.74,446.91Z"/><path class="cls-1" d="M483.23,303l-.06.32v262.5a59.48,59.48,0,0,0,59.49,59.49H685.74V446.91Z"/><path class="cls-3" d="M685.74,625.31h150.5a59.48,59.48,0,0,0,59.49-59.49V303.43s0-.15-.09-.42l-209.9,143.9Z"/><path class="cls-1" d="M422.61,550.22,632.52,406.33c-1.7-7.78-30.26-125.56-206.2-125.56-1.25,0-2.47,0-3.71,0Z"/><path class="cls-2" d="M422.61,280.81c-174.43,1.65-201.09,118.67-202.5,125.5l202.5,143.91Z"/><path class="cls-1" d="M220.11,406.31c0,.21-.07.33-.07.33v262.5a59.5,59.5,0,0,0,59.49,59.49H422.61V550.22Z"/><path class="cls-3" d="M422.61,728.63H573.12a59.5,59.5,0,0,0,59.49-59.49V406.74s0-.15-.09-.41L422.61,550.22Z"/></svg>