<svg id="Layer_1" data-name="Layer 1" xmlns="http://www.w3.org/2000/svg" viewBox="0 0 609.46 609.01"><defs><style>.cls-1{fill:#44b649;}</style></defs><g id="bIkzUJ.tif"><path class="cls-1" d="M305,0H546.28C579,0,604.13,21.58,609.15,53.93a52.87,52.87,0,0,1,.3,8q0,242.61,0,485.22A61.37,61.37,0,0,1,547.77,609q-243,0-486.08,0A61.38,61.38,0,0,1,0,547.61Q0,304.51,0,61.4A61.39,61.39,0,0,1,61.7,0Q183.35,0,305,0ZM517.67,517.18c.1-1.37.21-2.2.21-3q0-84.86,0-169.72a101.36,101.36,0,0,0-16.56-56.59c-18.94-29-45.75-46.49-80.26-49.72-33.12-3.11-59.73,11-81.17,35.68-1.25,1.43-2.37,3-3.54,4.49l-1.06-.26V244.1h-91.2v273H335.3v-6.34q0-75.12,0-150.25c0-9.85,1.83-19,6.93-27.64,10.25-17.33,32.86-26.22,51.82-20,20.14,6.62,32.56,24.18,32.59,46.39q.08,75.87,0,151.75v6.18Zm-335.28.06V243.91H92V517.24Zm9.46-380.06c-.28-30.41-23.22-54.95-54.82-54.82-31.08.14-54.37,23.11-54.6,54.47-.23,31.14,23.81,54.4,54.25,54.83A54.49,54.49,0,0,0,191.85,137.18Z"/></g></svg>