<svg id="Layer_1" data-name="Layer 1" xmlns="http://www.w3.org/2000/svg" viewBox="0 0 1280 1024"><defs><style>.cls-1{fill:#44b649;}</style></defs><g id="bIkzUJ.tif"><path class="cls-1" d="M640.26,208.11q120.65,0,241.29,0c32.67,0,57.85,21.57,62.86,53.92a51.59,51.59,0,0,1,.31,8q0,242.61,0,485.21A61.38,61.38,0,0,1,883,817.09q-243,0-486.08,0a61.38,61.38,0,0,1-61.67-61.39q0-243.1,0-486.21A61.38,61.38,0,0,1,397,208.12Q518.61,208.06,640.26,208.11ZM852.94,725.27c.1-1.36.21-2.19.21-3q0-84.85,0-169.72A101.42,101.42,0,0,0,836.61,496c-18.94-29-45.75-46.49-80.26-49.72-33.12-3.11-59.73,11-81.17,35.67-1.25,1.44-2.37,3-3.55,4.49l-1.06-.25V452.2h-91.2v273h91.2v-6.34q0-75.14,0-150.25c0-9.86,1.84-19,6.94-27.64,10.25-17.33,32.86-26.22,51.82-20,20.14,6.61,32.56,24.18,32.58,46.39q.09,75.87,0,151.75v6.17Zm-335.28.07V452H427.27V725.34Zm9.46-380.06c-.28-30.41-23.22-54.95-54.82-54.82-31.08.13-54.37,23.11-54.6,54.47-.23,31.14,23.81,54.4,54.25,54.83A54.49,54.49,0,0,0,527.12,345.28Z"/></g></svg>