<svg id="Layer_1" data-name="Layer 1" xmlns="http://www.w3.org/2000/svg" viewBox="0 0 1280 1024"><defs><style>.cls-1{fill:#44b649;}</style></defs><g id="kEgfBA.tif"><path class="cls-1" d="M780.11,589.75h-112c-1.53-3.24-.51-5.56,2-7.86q10.7-9.74,21-19.85a8.69,8.69,0,0,0,2.65-5.39q.21-63.09.08-126.19a10.63,10.63,0,0,0-.49-1.68c-1,2.09-1.76,3.6-2.38,5.18Q661,509.49,631.08,585c-1,2.54-1.34,5.25-5.44,5.2-3.84,0-5.84-1.09-7.47-4.69q-33.82-74.46-67.94-148.81c-.66-1.44-1.4-2.85-2.7-5.47-.18,1.87-.28,2.43-.28,3-.32,34.58-.58,69.16-1,103.73a12.94,12.94,0,0,0,3.45,9.38Q564.3,564,578.47,581.1c1.73,2.09,2.2,5.2,3.58,8.66H498.71c-1.33-4.11-.21-7.36,2.26-10.65q12.28-16.32,24.13-33a11.71,11.71,0,0,0,2.07-6.3q.36-66.08.32-132.17a13.26,13.26,0,0,0-2.67-7.59c-7.57-9.68-15.65-19-23.18-28.68-2.13-2.73-3-6.41-4.5-9.66.57-.46,1.13-.93,1.69-1.4h4.88c24.44,0,48.88.09,73.32-.09,3.91,0,5.76,1.16,7.38,4.78q29.15,65.13,58.67,130.09c.74,1.65,1.55,3.28,2.69,5.7.94-2.21,1.66-3.81,2.31-5.43Q674,430.29,699.77,365.12c1.46-3.7,3.27-4.91,7.23-4.87,22.61.2,45.22.1,67.83.1H780c1.51,4.78.22,7.64-3.29,10.37-6.94,5.41-13.55,11.26-20.09,17.16a7.63,7.63,0,0,0-2.25,5.05q0,81.54.41,163.09a8.08,8.08,0,0,0,2.28,5.07c6.62,6.54,13.35,13,20.26,19.22C780.24,582.94,781.5,585.69,780.11,589.75Z"/></g></svg>