<svg id="Layer_1" data-name="Layer 1" xmlns="http://www.w3.org/2000/svg" viewBox="0 0 283.54 229.97"><defs><style>.cls-1{fill:#44b649;}</style></defs><g id="kEgfBA.tif"><path class="cls-1" d="M283,229.5H171c-1.53-3.24-.51-5.56,2-7.86q10.69-9.73,21-19.85a8.69,8.69,0,0,0,2.65-5.39q.21-63.09.08-126.19a10.63,10.63,0,0,0-.49-1.68c-1,2.09-1.76,3.6-2.38,5.18q-30,75.53-59.95,151.06c-1,2.54-1.34,5.25-5.44,5.2-3.84,0-5.84-1.09-7.47-4.69Q87.21,150.82,53.09,76.47c-.66-1.44-1.4-2.85-2.7-5.47-.18,1.87-.28,2.43-.28,3-.32,34.58-.58,69.16-1,103.73a12.94,12.94,0,0,0,3.45,9.38q14.62,16.68,28.79,33.75c1.73,2.09,2.2,5.2,3.58,8.66H1.57c-1.33-4.11-.21-7.36,2.26-10.65q12.29-16.32,24.13-33A11.71,11.71,0,0,0,30,179.6q.36-66.07.32-132.17a13.26,13.26,0,0,0-2.67-7.59C20.11,30.16,12,20.87,4.5,11.16,2.37,8.43,1.47,4.75,0,1.5.57,1,1.13.57,1.69.1H6.57C31,.1,55.45.19,79.89,0c3.91,0,5.76,1.16,7.38,4.78q29.15,65.13,58.67,130.09c.74,1.65,1.55,3.28,2.69,5.7.94-2.21,1.66-3.81,2.31-5.43Q176.83,70,202.63,4.87C204.09,1.17,205.9,0,209.86,0c22.61.2,45.22.1,67.83.1h5.18c1.51,4.78.22,7.64-3.29,10.37-6.94,5.41-13.55,11.26-20.09,17.16a7.63,7.63,0,0,0-2.25,5.05q0,81.54.41,163.09a8.08,8.08,0,0,0,2.28,5.07c6.62,6.54,13.35,13,20.26,19.22C283.1,222.69,284.36,225.44,283,229.5Z"/></g></svg>