<svg id="Layer_1" data-name="Layer 1" xmlns="http://www.w3.org/2000/svg" viewBox="0 0 512 511.06"><defs><style>.cls-1{fill:#44b649;}</style></defs><g id="_5wlsRA.tif" data-name="5wlsRA.tif"><path class="cls-1" d="M512,332.41a8.64,8.64,0,0,0-1.13,2c-7.42,26.85-26.75,42.27-54.42,42.44q-65.7.4-131.4,0c-28.09-.16-49-17.21-54.41-43.47-6.55-32,18-63.45,50.69-63.79,46-.48,91.93-.35,137.89-.07,25.33.15,46,17.58,51.7,42.46a13.6,13.6,0,0,0,1.08,2.49Z"/><path class="cls-1" d="M0,179.71c3.55-7.76,6.08-16.22,10.87-23.12,9.65-13.93,23.86-21.46,40.78-21.61,46.49-.42,93-.35,139.48,0,23.22.15,44.47,18.17,49.79,41.16,5.49,23.71-5.55,48.27-26.4,59.39-9.08,4.84-18.71,6.75-28.83,6.75q-64.24,0-128.49,0c-24.31,0-42.24-10.36-52.69-32.52-2.08-4.42-3-9.36-4.51-14Z"/><path class="cls-1" d="M179,511.06c-2.73-1-5.44-2.12-8.2-3.08-21-7.28-35.66-26.92-35.77-49.2q-.33-68.59,0-137.19c.09-23.86,16.42-43.71,40.8-50.46,21.27-5.9,46.06,4.11,58.09,23.31a55.67,55.67,0,0,1,8.44,30.29c0,43.73.11,87.47,0,131.2-.1,27.83-16.44,47.84-43.73,54.21a6.45,6.45,0,0,0-1.57.92Z"/><path class="cls-1" d="M512,194.68c-1,3.41-1.95,6.84-3,10.24A53.48,53.48,0,0,1,458.7,242c-17.47.15-34.95.07-52.42.07a22.71,22.71,0,0,1-2.89-.53c.66-21.68-.71-43.68,2.52-65,3.93-26,28.1-42.7,54.78-41.72,24.81.91,46.06,20.07,50.3,45.32a13,13,0,0,0,1,2.51Z"/><path class="cls-1" d="M0,316.44c1.92-5.57,3.25-11.42,5.85-16.66,9.55-19.25,25.41-29.54,46.86-30.24,17.47-.58,35-.15,52.47-.15.8,0,1.59.12,2.84.22,0,10,.12,19.77,0,29.53-.16,11,.5,22.05-1,32.83-3.68,25.7-25.36,44-51.57,44.7A53.14,53.14,0,0,1,1.87,335.35c-.47-2-1.24-4-1.87-5.94Z"/><path class="cls-1" d="M314,511.06c-2.58-1-5.13-2-7.73-2.88-21.36-7.23-35.85-26.25-36.36-48.65-.39-17.6-.13-35.21-.14-52.82a25.81,25.81,0,0,1,.33-3.08c1.71-.08,3.17-.21,4.63-.19,18.63.2,37.34-.64,55.86.91,24.5,2,43.55,22.6,46.27,47.52a53.45,53.45,0,0,1-34.74,55.71c-3.35,1.22-6.74,2.32-10.12,3.48Z"/><path class="cls-1" d="M377.15,121.53c0,21.94.1,43.89,0,65.83-.15,26.48-16,46.65-41.67,53.31-30.9,8-64.43-16.16-65.37-48-.79-26.74-.28-53.51-.31-80.28,0-19.44-.13-38.89,0-58.34.28-34.32,29.78-58.86,63.6-53.07,23.88,4.1,42.91,25.5,43.51,50.24.58,23.43.13,46.88.13,70.31Z"/><path class="cls-1" d="M242.14,107.72c-10.89,0-21.18.16-31.46,0-10.8-.22-21.77.3-32.34-1.43-23.13-3.81-40.9-23.7-43.25-46.73A53.62,53.62,0,0,1,167.76,4.3C202-10.27,240.66,13.9,242,51.15,242.7,69.72,242.14,88.33,242.14,107.72Z"/></g></svg>