<svg id="Layer_1" data-name="Layer 1" xmlns="http://www.w3.org/2000/svg" viewBox="0 0 1280 1024"><defs><style>.cls-1{fill:#44b649;}</style></defs><g id="_5wlsRA.tif" data-name="5wlsRA.tif"><path class="cls-1" d="M896,622.87a8.49,8.49,0,0,0-1.13,2c-7.42,26.84-26.75,42.26-54.42,42.43q-65.7.4-131.4,0c-28.09-.16-49-17.21-54.41-43.47-6.55-32,18-63.45,50.69-63.79,46-.48,91.93-.35,137.89-.07,25.33.15,46,17.58,51.7,42.47a13.9,13.9,0,0,0,1.08,2.49Z"/><path class="cls-1" d="M384,470.17c3.55-7.76,6.08-16.21,10.87-23.12,9.65-13.93,23.86-21.45,40.78-21.61,46.49-.42,93-.34,139.48,0,23.22.15,44.47,18.17,49.79,41.15,5.49,23.71-5.55,48.27-26.4,59.39-9.08,4.84-18.71,6.75-28.83,6.76q-64.25,0-128.49,0c-24.31,0-42.24-10.35-52.69-32.52-2.08-4.41-3-9.36-4.51-14.05Z"/><path class="cls-1" d="M563,801.52c-2.73-1-5.44-2.12-8.2-3.07-21-7.29-35.66-26.93-35.77-49.21q-.33-68.6,0-137.19c.09-23.85,16.42-43.7,40.8-50.46,21.27-5.9,46.06,4.11,58.09,23.31a55.72,55.72,0,0,1,8.44,30.29c0,43.74.11,87.47,0,131.21-.1,27.82-16.44,47.83-43.73,54.21a6.1,6.1,0,0,0-1.57.91Z"/><path class="cls-1" d="M896,485.14c-1,3.41-2,6.85-3,10.24a53.51,53.51,0,0,1-50.29,37.11c-17.47.14-35,.06-52.42.06a21,21,0,0,1-2.89-.53c.66-21.68-.71-43.67,2.52-65,3.93-26,28.1-42.7,54.78-41.72,24.81.91,46.06,20.08,50.3,45.32a12.8,12.8,0,0,0,1,2.51Z"/><path class="cls-1" d="M384,606.9c1.92-5.57,3.25-11.42,5.85-16.65C399.4,571,415.26,560.7,436.71,560c17.47-.57,35-.15,52.47-.15.8,0,1.59.12,2.84.22,0,10,.12,19.77,0,29.54-.16,10.95.5,22-1,32.82-3.68,25.7-25.36,44-51.57,44.71a53.16,53.16,0,0,1-53.52-41.32c-.47-2-1.24-4-1.87-5.94Z"/><path class="cls-1" d="M698,801.52c-2.58-1-5.13-2-7.73-2.88-21.36-7.23-35.85-26.24-36.36-48.65-.39-17.6-.13-35.21-.14-52.82a26,26,0,0,1,.33-3.08c1.71-.07,3.17-.21,4.63-.19,18.63.2,37.34-.64,55.86.91,24.5,2.05,43.55,22.61,46.27,47.52a53.47,53.47,0,0,1-34.74,55.72c-3.35,1.21-6.74,2.32-10.12,3.47Z"/><path class="cls-1" d="M761.15,412c0,21.94.1,43.88,0,65.82-.15,26.48-16,46.65-41.67,53.32-30.9,8-64.43-16.17-65.37-48-.79-26.74-.28-53.52-.31-80.28,0-19.45-.13-38.9,0-58.35.28-34.31,29.78-58.86,63.6-53.06,23.88,4.09,42.91,25.49,43.51,50.24.58,23.42.13,46.87.13,70.31Z"/><path class="cls-1" d="M626.14,398.18c-10.89,0-21.18.16-31.46-.05-10.8-.21-21.77.31-32.34-1.43-23.13-3.8-40.9-23.7-43.25-46.73a53.63,53.63,0,0,1,32.67-55.21c34.25-14.56,72.9,9.6,74.26,46.86C626.7,360.18,626.14,378.8,626.14,398.18Z"/></g></svg>