<svg id="Layer_1" data-name="Layer 1" xmlns="http://www.w3.org/2000/svg" viewBox="0 0 499.01 352.62"><defs><style>.cls-1{fill:#44b649;}</style></defs><g id="zhQ4rA.tif"><path class="cls-1" d="M499,79.58V273a47.25,47.25,0,0,0-1.15,4.77c-5.24,38.54-39,70.39-77.83,71.91-41.2,1.61-82.45,3-123.67,2.89-72.48-.26-145-1.71-217.45-2.83a68.63,68.63,0,0,1-30.13-7.94C17.18,325.7.58,299.65.27,264.3c-.51-57.49-.16-115-.09-172.47a140.26,140.26,0,0,1,1-16.39C5.68,37.21,40,4.45,78.38,2.94,119.75,1.31,161.16-.12,202.55,0q108,.33,216,2.89c34.69.82,64,23.8,75.39,56.52C496.16,66,497.33,72.85,499,79.58Zm-299.23,22.1V252.14L329.34,176.9C285.78,151.62,243,126.78,199.78,101.68Z"/></g></svg>