<svg id="Layer_1" data-name="Layer 1" xmlns="http://www.w3.org/2000/svg" viewBox="0 0 1280 1024"><defs><style>.cls-1{fill:#44b649;}</style></defs><g id="zhQ4rA.tif"><path class="cls-1" d="M889.5,415.27V608.73c-.38,1.59-.92,3.16-1.14,4.77-5.24,38.54-39.05,70.39-77.84,71.91-41.2,1.61-82.44,3-123.66,2.89-72.49-.26-145-1.71-217.46-2.83a68.59,68.59,0,0,1-30.12-7.94c-31.6-16.14-48.2-42.19-48.51-77.54-.51-57.49-.16-115-.1-172.47a142.47,142.47,0,0,1,1-16.39c4.53-38.23,38.84-71,77.23-72.5,41.37-1.63,82.78-3.06,124.16-2.93q108,.33,216,2.89c34.68.82,64,23.8,75.39,56.52C886.66,401.64,887.83,408.54,889.5,415.27Zm-299.22,22.1V587.83l129.55-75.24Z"/></g></svg>